<svg width="32" height="32" viewBox="0 0 32 32" fill="none" xmlns="http://www.w3.org/2000/svg">
<path d="M21 15.8026C21 17.1124 20.4732 18.3684 19.5355 19.2946C18.5979 20.2207 17.3261 20.741 16 20.741C14.6739 20.741 13.4021 20.2207 12.4645 19.2946C11.5268 18.3684 11 17.1124 11 15.8026C11 15.5212 11.03 15.2463 11.0817 14.9796H9.33333V21.5591C9.33333 22.0167 9.70833 22.3871 10.1717 22.3871H21.83C22.0521 22.3866 22.2649 22.2992 22.4217 22.144C22.5786 21.9887 22.6667 21.7784 22.6667 21.5591V14.9796H20.9183C20.97 15.2463 21 15.5212 21 15.8026ZM16 19.0949C16.4378 19.0947 16.8714 19.0095 17.2759 18.8439C17.6803 18.6783 18.0478 18.4356 18.3574 18.1298C18.6669 17.8239 18.9124 17.4608 19.0799 17.0612C19.2473 16.6617 19.3334 16.2334 19.3333 15.801C19.3332 15.3685 19.2469 14.9403 19.0792 14.5409C18.9116 14.1414 18.6659 13.7784 18.3562 13.4727C18.0465 13.167 17.6789 12.9245 17.2743 12.7591C16.8698 12.5937 16.4362 12.5087 15.9983 12.5088C15.1141 12.509 14.2661 12.8561 13.641 13.4739C13.0158 14.0916 12.6648 14.9293 12.665 15.8026C12.6652 16.676 13.0167 17.5135 13.6421 18.1309C14.2676 18.7483 15.1157 19.0951 16 19.0949ZM20 12.3458H21.9983C22.1311 12.3458 22.2584 12.2938 22.3525 12.2013C22.4465 12.1087 22.4996 11.9831 22.5 11.852V9.87829C22.5 9.74688 22.4471 9.62086 22.3531 9.52794C22.259 9.43502 22.1314 9.38281 21.9983 9.38281H20C19.8669 9.38281 19.7393 9.43502 19.6453 9.52794C19.5512 9.62086 19.4983 9.74688 19.4983 9.87829V11.852C19.5 12.1236 19.725 12.3458 20 12.3458ZM16 0C11.7565 0 7.68687 1.66492 4.68629 4.62848C1.68571 7.59205 0 11.6115 0 15.8026C0 19.9938 1.68571 24.0132 4.68629 26.9768C7.68687 29.9404 11.7565 31.6053 16 31.6053C18.1012 31.6053 20.1817 31.1965 22.1229 30.4024C24.0641 29.6082 25.828 28.4442 27.3137 26.9768C28.7994 25.5094 29.978 23.7673 30.7821 21.85C31.5861 19.9328 32 17.8779 32 15.8026C32 13.7274 31.5861 11.6725 30.7821 9.75523C29.978 7.83796 28.7994 6.09589 27.3137 4.62848C25.828 3.16107 24.0641 1.99706 22.1229 1.2029C20.1817 0.408747 18.1012 0 16 0ZM24.3333 22.2043C24.3333 23.2101 23.5 24.0332 22.4817 24.0332H9.51833C8.5 24.0332 7.66667 23.2101 7.66667 22.2043V9.40092C7.66667 8.39515 8.5 7.5721 9.51833 7.5721H22.4817C23.5 7.5721 24.3333 8.39515 24.3333 9.40092V22.2043Z" fill="white"/>
</svg>
