<svg width="32" height="32" viewBox="0 0 32 32" fill="none" xmlns="http://www.w3.org/2000/svg">
<path d="M16 0C7.16333 0 0 7.07497 0 15.8026C0 24.5303 7.16333 31.6053 16 31.6053C24.8367 31.6053 32 24.5303 32 15.8026C32 7.07497 24.8367 0 16 0ZM22.5083 12.945C22.515 13.08 22.5167 13.215 22.5167 13.3466C22.5167 17.4619 19.3483 22.2043 13.5517 22.2043C11.8388 22.2072 10.1616 21.7213 8.72167 20.8052C8.96667 20.8348 9.21833 20.8463 9.47333 20.8463C10.95 20.8463 12.3083 20.3508 13.3867 19.5146C12.7295 19.5019 12.0928 19.2869 11.5652 18.8998C11.0376 18.5127 10.6454 17.9726 10.4433 17.3549C10.9153 17.4435 11.4014 17.425 11.865 17.3006C11.1517 17.1581 10.5103 16.7764 10.0495 16.2202C9.5887 15.664 9.33684 14.9674 9.33667 14.2487V14.2108C9.76167 14.443 10.2483 14.5845 10.765 14.601C10.0963 14.1613 9.62298 13.486 9.44174 12.7131C9.26051 11.9402 9.38509 11.1281 9.79 10.4429C10.5816 11.4042 11.5688 12.1907 12.6876 12.7513C13.8065 13.3119 15.032 13.6342 16.285 13.6973C16.1257 13.0295 16.1943 12.3284 16.48 11.703C16.7658 11.0777 17.2527 10.5631 17.8651 10.2392C18.4775 9.91539 19.1811 9.80047 19.8665 9.91232C20.5519 10.0242 21.1806 10.3565 21.655 10.8577C22.3603 10.7199 23.0366 10.4644 23.655 10.1022C23.4199 10.8234 22.9278 11.4358 22.27 11.8256C22.8947 11.7513 23.5048 11.5854 24.08 11.3335C23.6575 11.9588 23.1252 12.5046 22.5083 12.945Z" fill="white"/>
</svg>
