<svg width="27" height="27" viewBox="0 0 27 27" fill="none" xmlns="http://www.w3.org/2000/svg">
<path d="M13.3333 8.46675L8.46666 13.3334L13.3333 18.2001L14.7333 16.8001L12.2667 14.3334L18.3333 14.3334L18.3333 12.3334L12.2667 12.3334L14.7333 9.86675L13.3333 8.46675ZM13.3333 7.8943e-05C15.1555 7.91023e-05 16.8778 0.35008 18.5 1.05008C20.1222 1.75008 21.5389 2.70564 22.75 3.91675C23.9611 5.12786 24.9167 6.54452 25.6167 8.16675C26.3167 9.78897 26.6667 11.5112 26.6667 13.3334C26.6667 15.1779 26.3167 16.9112 25.6167 18.5334C24.9167 20.1556 23.9611 21.5667 22.75 22.7667C21.5389 23.9667 20.1222 24.9167 18.5 25.6167C16.8778 26.3167 15.1555 26.6667 13.3333 26.6667C11.4889 26.6667 9.75555 26.3167 8.13332 25.6167C6.5111 24.9167 5.09999 23.9667 3.89999 22.7667C2.69999 21.5667 1.74999 20.1556 1.04999 18.5334C0.34999 16.9112 -1.04397e-05 15.1779 -1.02785e-05 13.3334C-1.01192e-05 11.5112 0.34999 9.78897 1.04999 8.16675C1.74999 6.54452 2.69999 5.12786 3.89999 3.91675C5.09999 2.70564 6.5111 1.75008 8.13333 1.05008C9.75555 0.350079 11.4889 7.87818e-05 13.3333 7.8943e-05ZM13.3333 2.00008C10.1778 2.00008 7.49999 3.10563 5.29999 5.31674C3.09999 7.52785 1.99999 10.2001 1.99999 13.3334C1.99999 16.489 3.09999 19.1667 5.29999 21.3667C7.49999 23.5667 10.1778 24.6667 13.3333 24.6667C16.4667 24.6667 19.1389 23.5667 21.35 21.3667C23.5611 19.1667 24.6667 16.489 24.6667 13.3334C24.6667 10.2001 23.5611 7.52786 21.35 5.31675C19.1389 3.10563 16.4667 2.00008 13.3333 2.00008Z" fill="white"/>
</svg>
