<svg width="32" height="32" viewBox="0 0 32 32" fill="none" xmlns="http://www.w3.org/2000/svg">
<path d="M18.6717 15.5277L14.9283 13.8026C14.6017 13.6528 14.3333 13.8207 14.3333 14.1779V17.4273C14.3333 17.7845 14.6017 17.9525 14.9283 17.8027L18.67 16.0775C18.9983 15.9261 18.9983 15.6792 18.6717 15.5277ZM16 0C7.16333 0 0 7.07497 0 15.8026C0 24.5303 7.16333 31.6053 16 31.6053C24.8367 31.6053 32 24.5303 32 15.8026C32 7.07497 24.8367 0 16 0ZM16 22.2225C7.81 22.2225 7.66667 21.4932 7.66667 15.8026C7.66667 10.112 7.81 9.38281 16 9.38281C24.19 9.38281 24.3333 10.112 24.3333 15.8026C24.3333 21.4932 24.19 22.2225 16 22.2225Z" fill="white"/>
</svg>
